<svg id="logo" xmlns="http://www.w3.org/2000/svg" width="64" height="22" viewBox="0 0 64 22">
  <defs>
    <style>
      .cls-1, .cls-2 {
        fill-rule: evenodd;
      }

      .cls-2 {
        fill: #777;
      }

      .cls-3 {
        fill: #777;
      }
    </style>
  </defs>
<path id="cdgen" class="cls-1" d="M134,40l-6-7v7h-2V30h2l1,1,5,6V30h2V40h-2ZM114,30h10v2h-8v6h8v2H114V30Zm3,4h7v2h-7V34Zm-17,1a4.9,4.9,0,0,1,5-5h7v2h-7a3.3,3.3,0,0,0-3,3,3.147,3.147,0,0,0,3,3h5V36h-5V34h7v6h-7A4.818,4.818,0,0,1,100,35Zm-7,5H86V30h7a4.771,4.771,0,0,1,5,5C98,37.646,96.535,40,93,40Zm0-8H88v6h5a3.324,3.324,0,0,0,3-3C96,34.025,94.547,32,93,32ZM72,35a4.771,4.771,0,0,1,5-5h7v2H77a3.34,3.34,0,0,0-3,3,3.148,3.148,0,0,0,3,3h7v2H77C73.465,40,72,37.646,72,35Z" transform="translate(-72 -30)"/>
  <path id="txt" class="cls-2" d="M74.831,49.944a3.991,3.991,0,0,0,.419-0.1,3.044,3.044,0,0,0,.367-0.133l0.322-.142V48.8H75.887q-0.08.074-.219,0.18a2.39,2.39,0,0,1-.331.205,2.216,2.216,0,0,1-.453.172,2.138,2.138,0,0,1-.553.068,1.6,1.6,0,0,1-.62-0.121,1.4,1.4,0,0,1-.508-0.361,1.79,1.79,0,0,1-.352-0.6,2.52,2.52,0,0,1-.129-0.853,2.684,2.684,0,0,1,.122-0.838,1.718,1.718,0,0,1,.341-0.618A1.474,1.474,0,0,1,73.7,45.66a1.579,1.579,0,0,1,.627-0.126,2.028,2.028,0,0,1,.54.065,2.276,2.276,0,0,1,.78.382q0.143,0.11.233,0.188H75.94V45.395q-0.171-.087-0.346-0.16a3.305,3.305,0,0,0-.343-0.121,3.6,3.6,0,0,0-.423-0.091,3.177,3.177,0,0,0-.489-0.036,2.538,2.538,0,0,0-.95.17,2.067,2.067,0,0,0-.734.493,2.249,2.249,0,0,0-.482.783,3.055,3.055,0,0,0-.165,1.055,3.141,3.141,0,0,0,.171,1.078,2.131,2.131,0,0,0,.48.783,2,2,0,0,0,.736.473,2.662,2.662,0,0,0,.935.159A2.878,2.878,0,0,0,74.831,49.944ZM78.9,47.8a1.7,1.7,0,0,0,.787-0.528,1.361,1.361,0,0,0,.289-0.887,1.184,1.184,0,0,0-.158-0.634,1.247,1.247,0,0,0-.43-0.417,1.533,1.533,0,0,0-.573-0.21,5.144,5.144,0,0,0-.747-0.045H76.732v4.818h0.689V47.977h0.787l1.643,1.916h0.895Zm0.284-.925a0.835,0.835,0,0,1-.625.524,2.66,2.66,0,0,1-.533.049H77.421V45.624H78.1a2.64,2.64,0,0,1,.484.037,1,1,0,0,1,.341.128,0.647,0.647,0,0,1,.247.267,0.84,0.84,0,0,1,.08.374A1.237,1.237,0,0,1,79.184,46.87ZM84.4,49.893V49.323H81.851v-1.79h2.377V46.964H81.851v-1.32H84.4v-0.57H81.162v4.818H84.4Zm1.325,0,0.47-1.346h1.981l0.47,1.346h0.728l-1.747-4.818H86.779l-1.747,4.818h0.7ZM86.389,48l0.8-2.272L87.987,48h-1.6Zm5.533,1.893V45.644h1.74v-0.57h-4.17v0.57h1.74v4.249h0.689Zm4.34-.492H95.6V45.566h0.661V45.074H94.25v0.492h0.661V49.4H94.25v0.492h2.012V49.4Zm4.655-4.326-1.434,4-1.434-4H97.31l1.782,4.818h0.745l1.782-4.818h-0.7Zm4.618,4.818V49.323h-2.552v-1.79h2.378V46.964h-2.378v-1.32h2.552v-0.57h-3.241v4.818h3.241Zm7.394-3.619a2.133,2.133,0,0,0-.777-0.817,2.494,2.494,0,0,0-.708-0.28,5.042,5.042,0,0,0-1.147-.1h-1.18v4.818h1.194a5.679,5.679,0,0,0,1.036-.078,2.531,2.531,0,0,0,.8-0.307,2.161,2.161,0,0,0,.771-0.828,2.466,2.466,0,0,0,.287-1.191A2.528,2.528,0,0,0,112.929,46.273Zm-0.623,2.145a1.44,1.44,0,0,1-.54.6,1.781,1.781,0,0,1-.63.252,4.2,4.2,0,0,1-.8.068h-0.526V45.624h0.526a3.763,3.763,0,0,1,.78.068,2.084,2.084,0,0,1,.588.223,1.429,1.429,0,0,1,.588.613,2.079,2.079,0,0,1,.2.95A2.176,2.176,0,0,1,112.306,48.419Zm5.5,1.474V49.323h-2.551v-1.79h2.377V46.964h-2.377v-1.32h2.551v-0.57h-3.24v4.818h3.24Zm3.423-.026a1.836,1.836,0,0,0,.565-0.324,1.318,1.318,0,0,0,.347-0.466,1.352,1.352,0,0,0,.123-0.557,1.169,1.169,0,0,0-.247-0.757,1.5,1.5,0,0,0-.783-0.459c-0.139-.039-0.315-0.081-0.526-0.128s-0.39-.088-0.536-0.125a1.04,1.04,0,0,1-.5-0.265,0.676,0.676,0,0,1-.174-0.489,0.643,0.643,0,0,1,.3-0.548,1.321,1.321,0,0,1,.777-0.209,2.137,2.137,0,0,1,.811.157,2.325,2.325,0,0,1,.633.367h0.052V45.3a3.47,3.47,0,0,0-.718-0.23,4.041,4.041,0,0,0-.824-0.081,1.931,1.931,0,0,0-1.253.4,1.217,1.217,0,0,0-.491.982,1.3,1.3,0,0,0,.089.5,1.115,1.115,0,0,0,.249.374,1.343,1.343,0,0,0,.376.262,2.489,2.489,0,0,0,.48.165q0.3,0.071.5,0.113c0.132,0.028.279,0.064,0.439,0.107a0.927,0.927,0,0,1,.487.268,0.756,0.756,0,0,1-.139,1.053,1.417,1.417,0,0,1-.864.222,2.34,2.34,0,0,1-.831-0.163,2.516,2.516,0,0,1-.773-0.461h-0.049v0.8a4.952,4.952,0,0,0,.743.267,3.67,3.67,0,0,0,.959.108A2.357,2.357,0,0,0,121.229,49.867Zm4.007-.466h-0.662V45.566h0.662V45.074h-2.012v0.492h0.661V49.4h-0.661v0.492h2.012V49.4Zm4.268,0.55a4.635,4.635,0,0,0,.459-0.107,3.786,3.786,0,0,0,.413-0.133c0.147-.056.265-0.1,0.353-0.139v-2.1h-1.88v0.563h1.2v1.246a2.139,2.139,0,0,1-.488.116,4.345,4.345,0,0,1-.581.039,1.827,1.827,0,0,1-.708-0.131,1.463,1.463,0,0,1-.538-0.38,1.723,1.723,0,0,1-.352-0.615,2.672,2.672,0,0,1-.121-0.848,2.032,2.032,0,0,1,.461-1.395,1.532,1.532,0,0,1,1.209-.524,2.554,2.554,0,0,1,1.065.227,2.366,2.366,0,0,1,.389.205c0.091,0.064.18,0.131,0.266,0.2h0.059V45.4c-0.088-.041-0.2-0.09-0.346-0.147a3.811,3.811,0,0,0-.388-0.134,3.76,3.76,0,0,0-.46-0.1,3.417,3.417,0,0,0-.5-0.036,2.9,2.9,0,0,0-1.013.171,2.128,2.128,0,0,0-.78.489,2.21,2.21,0,0,0-.5.788,2.917,2.917,0,0,0-.176,1.044,3.111,3.111,0,0,0,.175,1.087,2.114,2.114,0,0,0,.5.793,2.063,2.063,0,0,0,.783.472,3.1,3.1,0,0,0,1.006.155A2.976,2.976,0,0,0,129.5,49.951Zm6.489-4.876h-0.644v3.815l-2.085-3.815h-0.978v4.818h0.644V45.738l2.29,4.155h0.773V45.074Z" transform="translate(-72 -30)"/>
  <rect id="line2" class="cls-3" y="13" width="64" height="1" rx="0.5" ry="0.5"/>
  <rect id="line1" class="cls-3" y="21" width="64" height="1" rx="0.5" ry="0.5"/>
</svg>